<svg viewBox="0 0 20 20" fill="none" xmlns="http://www.w3.org/2000/svg">
    <g clip-path="url(#clip0_43724_41812)">
        <path
            d="M0.372559 10.2505C0.372559 14.4549 3.06804 18.0295 6.82322 19.3407C7.32835 19.4676 7.25097 19.1086 7.25097 18.8635V17.1955C4.33194 17.5373 4.21372 15.6049 4.01597 15.2825C3.61831 14.6054 2.68542 14.4334 2.96271 14.111C3.62906 13.7692 4.30615 14.197 5.08857 15.3577C5.65604 16.1982 6.76303 16.0563 7.3262 15.9166C7.44872 15.4114 7.71096 14.96 8.07208 14.6075C5.04773 14.0658 3.78597 12.2194 3.78597 10.0226C3.78597 8.95863 4.13849 7.97845 4.82633 7.18959C4.38783 5.88699 4.86717 4.77354 4.93166 4.60803C6.18267 4.49626 7.47882 5.50222 7.58199 5.58176C8.29348 5.39045 9.10384 5.28727 10.0088 5.28727C10.9202 5.28727 11.7348 5.3926 12.4485 5.58606C12.6914 5.4012 13.8951 4.5371 15.058 4.64242C15.1203 4.80794 15.5889 5.89558 15.1762 7.18099C15.8748 7.972 16.2294 8.96078 16.2294 10.0269C16.2294 12.2259 14.9612 14.0744 11.9261 14.6097C12.4313 15.1105 12.7451 15.8026 12.7451 16.5679V18.9904C12.7623 19.1838 12.7451 19.3751 13.0697 19.3751C16.8829 18.0962 19.6278 14.4936 19.6278 10.2526C19.6278 4.93261 15.3159 0.625001 10.0002 0.625001C4.68016 0.622852 0.372559 4.93046 0.372559 10.2505Z"
            fill="#FAFAFA" />
    </g>
    <defs>
        <clipPath id="clip0_43724_41812">
            <rect width="20" height="20" fill="white" />
        </clipPath>
    </defs>
</svg>