<svg viewBox="0 0 21 20" fill="none" xmlns="http://www.w3.org/2000/svg">
<path d="M5.17066 9.99992C5.17066 9.40468 5.27225 8.83365 5.452 8.29855L2.29624 5.93945H2.29624C1.6622 7.19906 1.33294 8.58988 1.33497 9.99992C1.33497 11.4591 1.68041 12.8355 2.29468 14.0573L5.44888 11.6943C5.26497 11.1483 5.171 10.576 5.17066 9.99992" fill="#FBBC05"/>
<path d="M10.7133 4.58452C12.0341 4.58452 13.2274 5.04228 14.1653 5.7922L16.8935 3.1261C15.2312 1.70985 13.1001 0.834961 10.7133 0.834961C7.00737 0.834961 3.8219 2.90894 2.29639 5.93985L5.4537 8.29895C6.18051 6.13826 8.25309 4.58453 10.7133 4.58453" fill="#EA4335"/>
<path d="M10.7133 15.4166C8.25232 15.4166 6.17974 13.8628 5.45215 11.7021L2.29639 14.0612C3.82112 17.0922 7.00658 19.1661 10.7133 19.1661C13 19.1661 15.1836 18.3717 16.8232 16.882L13.8269 14.6151C12.982 15.1361 11.9176 15.4166 10.7125 15.4166" fill="#34A853"/>
<path d="M19.6652 10.0002C19.6652 9.45886 19.5792 8.87533 19.4518 8.33398H10.7129V11.875H15.7427C15.4919 13.0827 14.8073 14.0107 13.828 14.6145L16.8236 16.8815C18.5452 15.3176 19.6652 12.9881 19.6652 10.0002Z" fill="#4285F4"/>
</svg>
