<svg width="20" height="20" viewBox="0 0 20 20" fill="none" xmlns="http://www.w3.org/2000/svg">
<g id="Frame 2343">
<path id="Subtract" fill-rule="evenodd" clip-rule="evenodd" d="M18 10C18 14.4183 14.4183 18 10 18C5.58172 18 2 14.4183 2 10C2 5.58172 5.58172 2 10 2C14.4183 2 18 5.58172 18 10ZM7.17142 7.17181C7.48384 6.8594 7.99038 6.8594 8.30279 7.17181L10 8.86902L11.6972 7.17181C12.0096 6.8594 12.5162 6.8594 12.8286 7.17181C13.141 7.48423 13.141 7.99077 12.8286 8.30319L11.1314 10.0004L12.8283 11.6973C13.1407 12.0097 13.1407 12.5162 12.8283 12.8287C12.5159 13.1411 12.0093 13.1411 11.6969 12.8287L10 11.1318L8.30309 12.8287C7.99067 13.1411 7.48414 13.1411 7.17172 12.8287C6.8593 12.5162 6.8593 12.0097 7.17172 11.6973L8.86863 10.0004L7.17142 8.30319C6.859 7.99077 6.859 7.48423 7.17142 7.17181Z" fill="#999999"/>
</g>
</svg>
