<svg width="20" height="20" viewBox="0 0 20 20" fill="none" xmlns="http://www.w3.org/2000/svg">
<path d="M4.47521 3.76514H15.524C15.9054 3.76514 16.2145 4.07425 16.2145 4.45559L16.2147 5.55067C16.2147 5.73386 16.142 5.90954 16.0124 6.03906L11.5829 10.4683C11.4534 10.5978 11.3806 10.7735 11.3806 10.9566V15.3105C11.3806 15.7598 10.9585 16.0894 10.5226 15.9805L9.14156 15.6352C8.83413 15.5583 8.61848 15.2821 8.61848 14.9652V10.9566C8.61848 10.7735 8.54572 10.5978 8.41623 10.4683L3.98692 6.03902C3.85742 5.90953 3.78467 5.73388 3.78467 5.55074V4.45568C3.78467 4.07431 4.09383 3.76514 4.47521 3.76514Z" stroke="currentColor" stroke-width="1.33" stroke-linecap="round" stroke-linejoin="round"/>
</svg>
