<svg viewBox="0 0 63 58" fill="none" xmlns="http://www.w3.org/2000/svg">
<path fill-rule="evenodd" clip-rule="evenodd" d="M31.2285 62.4571C13.9815 62.4571 0 48.4755 0 31.2285C0 13.9815 13.9815 0 31.2285 0C48.4756 0 62.4571 13.9815 62.4571 31.2285C62.4571 48.4756 48.4756 62.4571 31.2285 62.4571ZM39.3897 31.2643L39.7414 31.3585C43.8635 32.4632 46.3192 36.6761 45.2146 40.7989C44.1099 44.9218 39.8705 47.3691 35.7483 46.2644L32.7566 45.4626L31.1942 51.2945L27.5744 50.3245L29.1369 44.4926L26.2346 43.7152L24.6714 49.5492L21.0461 48.5778L22.6093 42.7438L15.9651 40.9636L17.0223 37.0173L21.6477 38.2567L26.4837 20.2083L21.8584 18.969L22.9156 15.0226L29.5598 16.8029L31.0713 11.1622L34.6966 12.1336L33.1851 17.7743L36.0875 18.5516L37.5962 12.9207L41.2159 13.8907L39.7072 19.5217L42.2459 20.2021L42.2784 20.2108C45.3212 21.0357 47.1191 24.1712 46.2941 27.214C45.486 30.2308 42.3946 32.0159 39.3897 31.2643ZM35.063 22.373L32.4489 21.6724L30.5898 28.6104L33.204 29.311L34.9381 29.7758C35.6422 29.9642 36.3247 29.9314 36.9786 29.7025C38.0951 29.3557 39.0135 28.4429 39.3366 27.2363C39.6604 26.0297 39.3213 24.7806 38.5278 23.9216C38.0756 23.3961 37.5006 23.0262 36.7972 22.8378L35.063 22.373ZM33.8146 40.7089C33.8899 40.7291 33.9402 40.7424 34.0225 40.7375C35.8523 41.1471 37.7211 40.0048 38.2131 38.1694C38.7051 36.3341 37.6576 34.4102 35.8683 33.8498C35.7998 33.8048 35.7499 33.7914 35.6756 33.7714L35.6736 33.7709L32.2549 32.8547L29.6408 32.154L27.7817 39.092L30.3958 39.7926L33.8146 40.7089Z" fill="url(#paint0_linear_40905_73163)"/>
<defs>
<linearGradient id="paint0_linear_40905_73163" x1="31.2285" y1="-2" x2="31" y2="59" gradientUnits="userSpaceOnUse">
<stop stop-color="#FF9B22" stop-opacity="0.8"/>
<stop offset="1" stop-color="#FF9B22" stop-opacity="0.1"/>
</linearGradient>
</defs>
</svg>
