<svg width="64" height="60" viewBox="0 0 64 60" fill="none" xmlns="http://www.w3.org/2000/svg">
<g clip-path="url(#clip0_41653_32939)">
<path fill-rule="evenodd" clip-rule="evenodd" d="M32.2285 64.4571C14.9815 64.4571 1 50.4755 1 33.2285C1 15.9815 14.9815 2 32.2285 2C49.4756 2 63.4571 15.9815 63.4571 33.2285C63.4571 50.4756 49.4756 64.4571 32.2285 64.4571ZM16.1277 16.1612V49.0911H24.6075V31.1497H31.0949L16.1277 16.1612ZM40.7539 16.1613V34.1028H34.2665L49.2337 49.0912V16.1613H40.7539Z" fill="url(#paint0_linear_41653_32939)"/>
</g>
<defs>
<linearGradient id="paint0_linear_41653_32939" x1="32.2285" y1="1.30421e-07" x2="32" y2="61" gradientUnits="userSpaceOnUse">
<stop stop-color="white" stop-opacity="0.8"/>
<stop offset="1" stop-color="white" stop-opacity="0"/>
</linearGradient>
<clipPath id="clip0_41653_32939">
<path d="M0 0H47.6364C56.6738 0 64 7.32625 64 16.3636V43.6364C64 52.6738 56.6738 60 47.6364 60H0V0Z" fill="white"/>
</clipPath>
</defs>
</svg>
