<svg xmlns="http://www.w3.org/2000/svg" width="20" height="20" viewBox="0 0 20 20" fill="none">
  <mask id="path-1-inside-1_41638_32787" fill="white">
    <path d="M10 18C14.4183 18 18 14.4183 18 10C18 5.58172 14.4183 2 10 2C5.58172 2 2 5.58172 2 10C2 14.4183 5.58172 18 10 18Z"/>
  </mask>
  <path d="M10 18C14.4183 18 18 14.4183 18 10C18 5.58172 14.4183 2 10 2C5.58172 2 2 5.58172 2 10C2 14.4183 5.58172 18 10 18Z" fill="#1C2024"/>
  <path d="M17.5 10C17.5 14.1421 14.1421 17.5 10 17.5V18.5C14.6944 18.5 18.5 14.6944 18.5 10H17.5ZM10 17.5C5.85786 17.5 2.5 14.1421 2.5 10H1.5C1.5 14.6944 5.30558 18.5 10 18.5V17.5ZM2.5 10C2.5 5.85786 5.85786 2.5 10 2.5V1.5C5.30558 1.5 1.5 5.30558 1.5 10H2.5ZM10 2.5C14.1421 2.5 17.5 5.85786 17.5 10H18.5C18.5 5.30558 14.6944 1.5 10 1.5V2.5Z" fill="#E5E5E5" mask="url(#path-1-inside-1_41638_32787)"/>
  <path fill-rule="evenodd" clip-rule="evenodd" d="M12.8272 8.30319C13.1396 7.99077 13.1396 7.48423 12.8272 7.17181C12.5148 6.8594 12.0083 6.8594 11.6958 7.17181L9.9998 8.86785L8.30377 7.17181C7.99135 6.8594 7.48482 6.8594 7.1724 7.17181C6.85998 7.48423 6.85998 7.99077 7.1724 8.30319L8.86843 9.99922L7.17035 11.6973C6.85793 12.0097 6.85793 12.5162 7.17035 12.8287C7.48277 13.1411 7.9893 13.1411 8.30172 12.8287L9.9998 11.1306L11.6979 12.8287C12.0103 13.1411 12.5168 13.1411 12.8292 12.8287C13.1417 12.5162 13.1417 12.0097 12.8292 11.6973L11.1312 9.99922L12.8272 8.30319Z" fill="#E5E5E5"/>
</svg>
