<svg width="18" height="18" viewBox="0 0 18 18" fill="none" xmlns="http://www.w3.org/2000/svg">
<path fill-rule="evenodd" clip-rule="evenodd" d="M9 1C4.58172 1 1 4.58172 1 9C1 13.4183 4.58172 17 9 17C13.4183 17 17 13.4183 17 9C17 4.58172 13.4183 1 9 1ZM13.8216 7.12438C14.212 6.73375 14.2119 6.10058 13.8212 5.71017C13.4306 5.31976 12.7974 5.31994 12.407 5.71058L7.45717 10.6633L5.59305 8.79807C5.20264 8.40743 4.56948 8.40725 4.17884 8.79766C3.7882 9.18807 3.78802 9.82124 4.17843 10.2119L6.74986 12.7848C6.93741 12.9724 7.19185 13.0779 7.45717 13.0779C7.72249 13.0779 7.97693 12.9724 8.16448 12.7848L13.8216 7.12438Z" fill="#E5FF5A"/>
</svg>
