<svg viewBox="0 0 20 20" fill="#999999" xmlns="http://www.w3.org/2000/svg">
<path fill-rule="evenodd" clip-rule="evenodd" d="M3.46574 9.59953C3.46574 6.2111 6.21248 3.46428 9.60069 3.46428C12.9889 3.46428 15.7356 6.2111 15.7356 9.59953C15.7356 11.251 15.0832 12.75 14.022 13.8529C13.9897 13.8753 13.9589 13.9009 13.9301 13.9297C13.9013 13.9585 13.8758 13.9893 13.8534 14.0216C12.7505 15.0825 11.2518 15.7348 9.60069 15.7348C6.21248 15.7348 3.46574 12.988 3.46574 9.59953ZM14.3878 15.3279C13.0919 16.4121 11.4225 17.0648 9.60069 17.0648C5.47789 17.0648 2.13574 13.7225 2.13574 9.59953C2.13574 5.47661 5.47789 2.13428 9.60069 2.13428C13.7235 2.13428 17.0656 5.47661 17.0656 9.59953C17.0656 11.4217 16.4128 13.0914 15.3283 14.3875L17.6707 16.7298C17.9304 16.9895 17.9304 17.4105 17.6707 17.6702C17.411 17.9299 16.9899 17.9299 16.7302 17.6702L14.3878 15.3279Z" />
</svg>
