<svg width="64" height="60" viewBox="0 0 64 60" fill="none" xmlns="http://www.w3.org/2000/svg">
<g clip-path="url(#clip0_41463_66900)">
<path fill-rule="evenodd" clip-rule="evenodd" d="M32.2285 64.4571C14.9815 64.4571 1 50.4755 1 33.2285C1 15.9815 14.9815 2 32.2285 2C49.4756 2 63.4571 15.9815 63.4571 33.2285C63.4571 50.4756 49.4756 64.4571 32.2285 64.4571ZM40.3897 33.2643L40.7414 33.3585C44.8635 34.4632 47.3192 38.6761 46.2146 42.7989C45.1099 46.9218 40.8705 49.3691 36.7483 48.2644L33.7566 47.4626L32.1942 53.2945L28.5744 52.3245L30.1369 46.4926L27.2346 45.7152L25.6714 51.5492L22.0461 50.5778L23.6093 44.7438L16.9651 42.9636L18.0223 39.0173L22.6477 40.2567L27.4837 22.2083L22.8584 20.969L23.9156 17.0226L30.5598 18.8029L32.0713 13.1622L35.6966 14.1336L34.1851 19.7743L37.0875 20.5516L38.5962 14.9207L42.2159 15.8907L40.7072 21.5217L43.2459 22.2021L43.2784 22.2108C46.3212 23.0357 48.1191 26.1712 47.2941 29.214C46.486 32.2308 43.3946 34.0159 40.3897 33.2643ZM36.063 24.373L33.4489 23.6724L31.5898 30.6104L34.204 31.311L35.9381 31.7758C36.6422 31.9642 37.3247 31.9314 37.9786 31.7025C39.0951 31.3557 40.0135 30.4429 40.3366 29.2363C40.6604 28.0297 40.3213 26.7806 39.5278 25.9216C39.0756 25.3961 38.5006 25.0262 37.7972 24.8378L36.063 24.373ZM34.8146 42.7089C34.8899 42.7291 34.9402 42.7424 35.0225 42.7375C36.8523 43.1471 38.7211 42.0048 39.2131 40.1694C39.7051 38.3341 38.6576 36.4102 36.8683 35.8498C36.7998 35.8048 36.7499 35.7914 36.6756 35.7714L36.6736 35.7709L33.2549 34.8547L30.6408 34.154L28.7817 41.092L31.3958 41.7926L34.8146 42.7089Z" fill="url(#paint0_linear_41463_66900)"/>
</g>
<defs>
<linearGradient id="paint0_linear_41463_66900" x1="32.2285" y1="1.30421e-07" x2="32" y2="61" gradientUnits="userSpaceOnUse">
<stop stop-color="#FF9B22" stop-opacity="0.8"/>
<stop offset="1" stop-color="#FF9B22" stop-opacity="0.1"/>
</linearGradient>
<clipPath id="clip0_41463_66900">
<path d="M0 0H52C58.6274 0 64 5.37258 64 12V48C64 54.6274 58.6274 60 52 60H0V0Z" fill="white"/>
</clipPath>
</defs>
</svg>
