<svg width="20" height="20" viewBox="0 0 20 20" fill="none" xmlns="http://www.w3.org/2000/svg">
<g clip-path="url(#clip0_41085_3813)">
<path d="M16.9415 3.93805C15.6468 3.33228 14.2624 2.89203 12.8151 2.64136C12.6373 2.96272 12.4297 3.39496 12.2865 3.73882C10.748 3.50743 9.22354 3.50743 7.71327 3.73882C7.57013 3.39496 7.35777 2.96272 7.17846 2.64136C5.72958 2.89203 4.34359 3.3339 3.04888 3.94126C0.437432 7.88751 -0.27049 11.7357 0.0834707 15.5293C1.81553 16.8228 3.49406 17.6085 5.14433 18.1227C5.55175 17.5619 5.91516 16.9658 6.22822 16.3375C5.63201 16.111 5.06093 15.8314 4.52134 15.5068C4.66456 15.4008 4.80457 15.2899 4.9398 15.1758C8.23087 16.7151 11.8067 16.7151 15.0584 15.1758C15.1953 15.2899 15.3353 15.4008 15.4769 15.5068C14.9357 15.833 14.3631 16.1125 13.7669 16.3392C14.0799 16.9658 14.4418 17.5635 14.8508 18.1242C16.5026 17.6101 18.1827 16.8244 19.9147 15.5293C20.3301 11.1316 19.2053 7.31869 16.9415 3.93805ZM6.6766 13.1963C5.68863 13.1963 4.87849 12.274 4.87849 11.1508C4.87849 10.0277 5.67132 9.10384 6.6766 9.10384C7.68188 9.10384 8.49202 10.0261 8.47471 11.1508C8.47628 12.274 7.68188 13.1963 6.6766 13.1963ZM13.3216 13.1963C12.3337 13.1963 11.5235 12.274 11.5235 11.1508C11.5235 10.0277 12.3163 9.10384 13.3216 9.10384C14.3269 9.10384 15.137 10.0261 15.1197 11.1508C15.1197 12.274 14.3269 13.1963 13.3216 13.1963Z" fill="#FAFAFA"/>
</g>
<defs>
<clipPath id="clip0_41085_3813">
<rect width="20" height="20" fill="white"/>
</clipPath>
</defs>
</svg>
