<svg width="20" height="20" viewBox="0 0 20 20" fill="none" xmlns="http://www.w3.org/2000/svg">
<path fill-rule="evenodd" clip-rule="evenodd" d="M3.33317 2.54175C2.06752 2.54175 1.0415 3.56776 1.0415 4.83341V15.1667C1.0415 16.4324 2.06752 17.4584 3.33317 17.4584H16.6665C17.9322 17.4584 18.9582 16.4324 18.9582 15.1667V4.83341C18.9582 3.56776 17.9322 2.54175 16.6665 2.54175H3.33317ZM6.19159 6.98806C5.9088 6.79011 5.5191 6.85889 5.32115 7.14166C5.1232 7.42445 5.19198 7.81416 5.47475 8.0121L9.64142 10.9287C9.85659 11.0794 10.1431 11.0794 10.3583 10.9287L14.5249 8.0121C14.8077 7.81416 14.8765 7.42445 14.6785 7.14166C14.4806 6.85889 14.0908 6.79011 13.8081 6.98806L9.99984 9.65383L6.19159 6.98806Z" fill="#FAFAFA"/>
</svg>
