<svg viewBox="0 0 97 96" fill="none" xmlns="http://www.w3.org/2000/svg">
    <ellipse cx="48.5" cy="82" rx="46" ry="8" fill="#01040A" />
    <path fill-rule="evenodd" clip-rule="evenodd"
        d="M29.3278 4.16689C29.8687 4.05576 30.3974 4.40422 30.5085 4.94521L31.6334 10.4209C31.7445 10.9618 31.3961 11.4905 30.8551 11.6016C30.3141 11.7128 29.7854 11.3643 29.6743 10.8233L28.5494 5.34767C28.4383 4.80668 28.7868 4.27803 29.3278 4.16689ZM18.2078 12.7278C18.5298 12.2791 19.1545 12.1763 19.6033 12.4983L24.1452 15.7569C24.5939 16.0789 24.6967 16.7037 24.3748 17.1524C24.0528 17.6011 23.428 17.7039 22.9793 17.382L18.4374 14.1233C17.9886 13.8013 17.8859 13.1766 18.2078 12.7278ZM14.3787 22.5559C13.8291 22.5015 13.3394 22.9029 13.285 23.4524C13.2305 24.002 13.6319 24.4917 14.1815 24.5462L19.7443 25.0973C20.2939 25.1518 20.7835 24.7504 20.838 24.2008C20.8924 23.6512 20.4911 23.1615 19.9415 23.107L14.3787 22.5559ZM28.8652 26.2272C28.8652 21.3204 32.8429 17.3427 37.7497 17.3427H64.0314C68.9383 17.3427 72.9159 21.3204 72.9159 26.2272V60.7251C72.9159 60.7528 72.9148 60.7803 72.9126 60.8074C72.9148 60.8346 72.9159 60.8621 72.9159 60.8898V68.7743C72.9159 75.1325 67.7614 80.287 61.4033 80.287C55.0451 80.287 49.8906 75.1325 49.8906 68.7743C49.8906 64.822 51.8823 61.3348 54.9167 59.2616H29.8652C24.6115 59.2616 20.3525 63.5207 20.3525 68.7743C20.3525 74.0279 24.6115 78.287 29.8652 78.287H45.6342C46.1865 78.287 46.6342 78.7347 46.6342 79.287C46.6342 79.8393 46.1865 80.287 45.6342 80.287H29.8652C23.5069 80.287 18.3525 75.1325 18.3525 68.7743C18.3525 62.753 22.9751 57.8112 28.8652 57.3045V26.2272ZM30.8652 57.2616H58.7751H61.4033C61.9555 57.2616 62.4033 57.7093 62.4033 58.2616C62.4033 58.8139 61.9555 59.2616 61.4033 59.2616C56.1496 59.2616 51.8906 63.5207 51.8906 68.7743C51.8906 74.0279 56.1496 78.287 61.4033 78.287C66.6569 78.287 70.9159 74.0279 70.9159 68.7743V60.8898C70.9159 60.8621 70.9171 60.8346 70.9193 60.8074C70.9171 60.7803 70.9159 60.7528 70.9159 60.7251V26.2272C70.9159 22.425 67.8338 19.3427 64.0314 19.3427H37.7497C33.9475 19.3427 30.8652 22.425 30.8652 26.2272V57.2616Z"
        fill="#E5FF5A" />
</svg>