<svg width="112" height="112" viewBox="0 0 112 112" fill="none" xmlns="http://www.w3.org/2000/svg">
<path d="M101 61C101 47.1929 80.1812 36 54.5 36C28.8188 36 8 47.1929 8 61" stroke="#01040A" stroke-width="12" stroke-miterlimit="3.99393"/>
<path fill-rule="evenodd" clip-rule="evenodd" d="M47.5439 34.7799C47.6811 35.1928 48.23 35.7094 48.6237 35.7825L48.6194 35.7696C49.167 35.5462 48.8606 33.9988 48.6465 33.2245C48.0122 30.9748 47.3427 28.7295 46.6726 26.4823L46.6726 26.482C46.4061 25.5885 46.1396 24.6946 45.8752 23.8001L45.8153 23.5938C45.6302 22.9547 45.443 22.308 45.168 21.7138C45.06 21.4766 44.8383 21.297 44.6143 21.1156L44.6143 21.1155C44.5092 21.0304 44.4036 20.9449 44.309 20.8528C44.2595 20.9697 44.2042 21.0862 44.1487 21.2031L44.1487 21.2031L44.1487 21.2032C44.0063 21.5031 43.8629 21.8052 43.8131 22.1208C43.7654 22.4948 43.8767 22.9163 44.0009 23.2906C44.2302 24.0403 44.4592 24.7906 44.6883 25.5414C45.6277 28.6201 46.5691 31.7055 47.5439 34.7799ZM34.6915 76.8632C34.6924 76.8583 34.6921 76.8533 34.6905 76.8485L34.6894 76.8458C34.691 76.8021 34.6848 76.7582 34.6709 76.7163C34.6551 76.6688 34.6297 76.6248 34.5962 76.5871C34.5733 76.5615 34.5506 76.5368 34.5283 76.5131C34.2903 76.2607 34.1718 76.4151 33.9958 76.6441C33.9334 76.7253 33.8639 76.8159 33.7792 76.901L33.786 76.901C32.9003 77.7919 31.9812 78.7162 30.8473 79.8547C32.9942 79.9001 34.3645 78.6006 34.6915 76.8632ZM29.6074 32.9213L30.3146 32.8767C30.6514 32.8555 31.032 32.9574 31.419 33.1214C31.8122 33.2882 32.2434 33.5327 32.6916 33.8309C33.5886 34.4277 34.5818 35.2578 35.5191 36.169C36.4569 37.0806 37.3473 38.0816 38.0359 39.0242C38.7157 39.9548 39.2295 40.8692 39.3639 41.601L39.5128 42.4116L38.8357 41.9417C35.8113 39.8428 33.5626 37.3268 31.3765 34.8808L31.3764 34.8808L31.3663 34.8694C30.9387 34.391 30.5137 33.9155 30.0848 33.445L29.6074 32.9213ZM61.1268 23.9549L61.5706 24.427C61.7839 24.6539 61.9201 24.9689 62.0084 25.3118C62.0979 25.6594 62.1456 26.0653 62.1615 26.5025C62.1935 27.3773 62.0995 28.4159 61.9263 29.445C61.753 30.4753 61.4982 31.5089 61.2024 32.3755C60.9122 33.2258 60.5659 33.9671 60.1867 34.3655L60.0612 34.4974L59.8818 34.466C59.778 34.4478 59.6739 34.4265 59.5755 34.4062L59.5732 34.4058L59.5615 34.4033C59.465 34.3835 59.3737 34.3649 59.2842 34.3492L59.2351 34.3406L58.938 34.1917L58.9933 33.9343C59.3278 32.3786 59.659 30.8238 59.9904 29.2688L59.9907 29.2669L59.9913 29.2645L59.9916 29.2631L59.9919 29.2615L59.9922 29.26L59.9929 29.2568L59.9937 29.2531L59.9946 29.2491L59.9949 29.2478C60.3256 27.6953 60.6565 26.1424 60.9906 24.5884L61.1268 23.9549ZM40.3173 34.9896C40.6946 34.6447 41.2776 34.6645 41.6313 35.0324C41.9316 35.3449 42.234 35.6584 42.5365 35.9721L42.5391 35.9747L42.5434 35.9792L42.545 35.9808C42.9796 36.4314 43.4147 36.8826 43.8439 37.3308C44.0502 37.5258 44.0778 37.8898 43.8102 38.0933C43.6641 38.2043 43.504 38.2991 43.3632 38.3824L43.3557 38.3869C43.2338 38.459 43.1256 38.5233 43.0271 38.5924C42.7843 38.7627 42.4079 38.7689 42.1756 38.5023C41.5426 37.7756 40.8961 37.042 40.2468 36.3066C39.9071 35.9219 39.9384 35.3359 40.3173 34.9896ZM53.8996 30.9586C53.9629 30.4521 54.4183 30.0875 54.9269 30.1382C55.4377 30.189 55.8133 30.64 55.7712 31.1515C55.6908 32.1292 55.6115 33.1038 55.5389 34.0647C55.5123 34.4174 55.2069 34.6375 54.9106 34.6463C54.7903 34.6499 54.6651 34.6631 54.5243 34.6782L54.5156 34.6791L54.5138 34.6793C54.3516 34.6967 54.1672 34.7164 53.9844 34.7147C53.6482 34.7117 53.4526 34.4035 53.5013 34.1239C53.5776 33.5046 53.6568 32.8794 53.736 32.2549L53.7365 32.2506C53.7912 31.819 53.8459 31.3878 53.8996 30.9586ZM28.3905 48.8758C29.0968 49.2344 29.7092 49.6453 30.068 50.0838L30.3866 50.4731L29.9066 50.6235C29.4437 50.7686 28.7356 50.7408 27.9722 50.6308C27.1905 50.5181 26.2906 50.3093 25.4091 50.0465C24.5274 49.7837 23.6554 49.4642 22.9303 49.1273C22.22 48.7974 21.6024 48.4292 21.2772 48.0521L20.9506 47.6734L21.4229 47.5091C21.9456 47.3272 22.6706 47.3146 23.4457 47.3985C24.232 47.4836 25.1126 47.6731 25.9712 47.9297C26.8299 48.1863 27.6755 48.5128 28.3905 48.8758ZM78.803 29.1713L78.8601 29.9567C79.0305 32.3009 77.1813 34.3454 74.8511 34.3333L74.0826 34.3293L74.6025 33.7634C75.1683 33.1476 75.7331 32.5285 76.3308 31.8733L76.3333 31.8706L76.3352 31.8685L76.3403 31.863C76.9393 31.2064 77.572 30.5129 78.2706 29.7515L78.803 29.1713ZM18.6819 65.2947C19.6036 65.2109 20.4781 65.2716 21.1155 65.5789L21.7641 65.8915L21.1105 66.1937C18.6889 67.3132 16.3511 67.9928 13.9807 68.6818L13.9806 68.6818L13.9769 68.6829L13.9738 68.6839L13.9723 68.6842L13.9707 68.6847L13.9685 68.6854C13.2932 68.8817 12.6155 69.0787 11.9302 69.2873L11.2649 69.4898L11.5138 68.8404C11.7459 68.2349 12.3523 67.6759 13.086 67.2007C13.8338 66.7164 14.7705 66.283 15.746 65.95C16.7218 65.6168 17.7494 65.3795 18.6819 65.2947ZM94.4751 41.4432C95.3985 41.2347 96.2715 41.122 96.9289 41.1848L97.392 41.2291L97.2092 41.6568C97.1024 41.9067 96.898 42.1395 96.6559 42.3509C96.4091 42.5664 96.0989 42.7806 95.7483 42.9882C95.0467 43.4036 94.156 43.8089 93.2204 44.1569C92.2838 44.5051 91.2925 44.7995 90.387 44.9898C89.4891 45.1784 88.6467 45.2712 88.0202 45.1961L87.6191 45.148L87.735 44.761C87.8091 44.5136 88.0043 44.2905 88.2221 44.0989C88.4494 43.8988 88.7452 43.6955 89.0839 43.4955C89.7626 43.0946 90.6482 42.6865 91.5906 42.3274C92.5341 41.9678 93.5443 41.6534 94.4751 41.4432ZM78.8631 61.78L79.6119 61.6765C81.8372 61.369 83.8599 61.986 85.9218 62.615L85.9542 62.6248C86.592 62.8194 87.2345 63.0153 87.8964 63.1903L88.5429 63.3612L88.0238 63.7828C87.602 64.1254 86.9514 64.273 86.2518 64.3098C85.5373 64.3473 84.7085 64.2723 83.8723 64.1129C82.2126 63.7967 80.4432 63.1324 79.4374 62.2715L78.8631 61.78ZM48.9341 76.3079L49.2906 76.867C49.4491 77.1156 49.5115 77.4752 49.5314 77.8536C49.5521 78.2469 49.5288 78.7202 49.4724 79.2403C49.3595 80.282 49.1101 81.5468 48.7842 82.8065C48.4583 84.0666 48.0531 85.332 47.6251 86.3748C47.4112 86.8959 47.1895 87.3667 46.9665 87.7555C46.7466 88.1388 46.5128 88.4651 46.2678 88.677L45.7062 89.1626L45.7055 88.4201C45.7019 84.3696 47.0403 81.033 48.4137 77.609L48.4231 77.5857L48.4242 77.583L48.428 77.5734C48.5147 77.3573 48.6015 77.1409 48.6882 76.9237L48.9341 76.3079ZM60.6936 75.7354L61.058 76.5502C62.9679 80.8206 63.9058 85.3469 64.7435 90.0713L64.85 90.6716L64.2833 90.4466C64.1269 90.3845 63.9982 90.2607 63.8961 90.1387C63.7882 90.0098 63.681 89.8471 63.5752 89.6622C63.3632 89.2918 63.1381 88.799 62.9103 88.2283C62.4536 87.0849 61.9718 85.5934 61.55 84.0604C61.1281 82.527 60.7639 80.9429 60.5444 79.6133C60.4348 78.9489 60.3603 78.3422 60.3338 77.8343C60.3079 77.3377 60.3251 76.8967 60.4236 76.5862L60.6936 75.7354ZM64.4329 74.5266L65.0515 74.728C65.5412 74.8875 66.016 75.3018 66.4341 75.8059C66.8598 76.319 67.2592 76.9646 67.5889 77.6467C67.9188 78.3291 68.184 79.0586 68.3355 79.7432C68.4853 80.4205 68.5313 81.0868 68.3894 81.6258L68.234 82.2158L67.814 81.7731C66.0451 79.9086 65.413 77.7958 64.7633 75.6244L64.7566 75.6022L64.755 75.5973C64.7285 75.5086 64.7021 75.4198 64.6754 75.3309L64.6208 75.1494L64.4329 74.5266ZM57.2272 53.5498L57.2118 53.5538C56.8943 53.4108 56.6451 53.284 56.4368 53.1781C56.0785 52.9959 55.8414 52.8753 55.5867 52.8398C52.0596 52.3048 49.0274 55.596 49.8348 59.293C50.8107 63.7846 53.5721 66.9397 58.1195 68.3696C64.7624 70.4495 70.531 68.8108 75.233 63.9757C79.4215 59.6797 83.4362 55.2238 87.4152 50.7506C89.7821 48.0761 88.6666 44.7372 85.1086 43.8956C82.3803 43.2439 79.6207 42.7337 76.8633 42.2238L76.8632 42.2238C75.858 42.0379 74.853 41.8521 73.8499 41.6595C73.7356 41.6348 73.5963 41.7129 73.4515 41.7942C73.3929 41.827 73.3334 41.8604 73.2743 41.8877C79.5173 50.2108 78.5736 60.1105 70.72 63.5993C73.9453 59.1814 74.4367 54.6353 73.2826 50.0139C72.1107 45.2975 68.9169 41.9217 64.5535 39.5551C59.2094 36.6692 50.0209 37.5658 47.0056 41.686C47.2018 41.6681 47.3843 41.6581 47.5571 41.6487L47.5571 41.6487C47.8794 41.631 48.1675 41.6152 48.4463 41.5537C56.2889 39.8525 64.4984 44.6371 66.7061 52.2001C68.3141 57.6683 65.7351 62.4539 60.5736 63.6097C56.2508 64.5678 52.3025 61.8951 52.4095 58.1343C52.4884 55.3803 54.3563 54.3018 57.2118 53.5538L57.2316 53.5627L57.2272 53.5498ZM56.4946 59.9008C59.9966 59.1058 61.4214 57.3673 61.041 54.6553C60.6386 51.7489 57.8537 49.5653 54.7048 49.7C49.0137 49.9183 45.3016 54.9531 46.6956 60.4038C48.4669 67.3445 55.8181 73.8726 64.7445 72.0819C65.1326 72.0038 65.5319 71.9586 65.9547 71.9106L65.9548 71.9106L65.955 71.9106C66.1833 71.8847 66.4186 71.858 66.6626 71.825C63.9776 75.6951 55.6228 76.856 49.7387 74.302C44.9334 72.2069 41.9182 68.6154 40.3629 63.8209C38.812 59.0393 40.0081 54.5975 42.6983 50.0495C35.0098 53.4996 34.2043 63.3261 40.5944 71.7746C40.406 71.7849 40.2339 71.8058 40.0733 71.8253C39.774 71.8616 39.5148 71.8931 39.2653 71.8422C38.6895 71.7298 38.114 71.6181 37.5388 71.5064C34.5813 70.9322 31.631 70.3594 28.6933 69.7018C25.0237 68.8817 23.7879 65.4952 26.2351 62.7517L26.6269 62.3123L26.627 62.3122C30.4888 57.9806 34.3542 53.645 38.453 49.5439C44.4542 43.5574 51.8633 42.6286 58.7043 46.8029C62.1984 48.9311 64.1571 52.0421 63.7553 56.1566C63.4076 59.7789 59.7348 61.7222 56.4946 59.9008Z" fill="#E5FF5A"/>
<path d="M101 61C101 74.8071 80.1812 86 54.5 86C28.8188 86 8 74.8071 8 61" stroke="#01040A" stroke-width="12" stroke-miterlimit="3.99393"/>
</svg>
