<svg width="44" height="44" viewBox="0 0 44 44" fill="none" xmlns="http://www.w3.org/2000/svg">
<path fill-rule="evenodd" clip-rule="evenodd" d="M22.0535 11.8372C22.0535 12.0367 22.2176 12.3407 22.3783 12.4293V12.4231C22.6488 12.405 22.739 11.6876 22.7577 11.3199C22.8068 10.2498 22.8399 9.17638 22.873 8.1021V8.10199C22.8862 7.67483 22.8993 7.24753 22.9135 6.82023L22.9173 6.72186C22.9291 6.41712 22.941 6.10878 22.9073 5.8106C22.8946 5.6918 22.8241 5.58168 22.7528 5.47038C22.7194 5.41819 22.6859 5.36573 22.658 5.31201C22.6196 5.35567 22.5787 5.39834 22.5377 5.44114L22.5377 5.44118L22.5376 5.44124C22.4324 5.55115 22.3264 5.66184 22.2591 5.7919C22.1843 5.94771 22.1719 6.14714 22.1719 6.32788C22.1634 6.68574 22.1546 7.04383 22.1458 7.40212L22.1457 7.40622L22.1457 7.40647L22.1457 7.40672C22.1097 8.88139 22.0735 10.3593 22.0535 11.8372ZM10.3843 28.2861C10.3854 28.2841 10.386 28.2819 10.386 28.2796L10.3859 28.2781C10.3929 28.2593 10.3966 28.2393 10.3966 28.219C10.3966 28.1961 10.3919 28.1733 10.3827 28.152C10.3765 28.1376 10.3702 28.1236 10.3639 28.11C10.2968 27.9659 10.223 28.0159 10.1134 28.0901L10.1133 28.0901C10.0745 28.1164 10.0312 28.1458 9.98204 28.1706L9.98525 28.1716C9.47125 28.4313 8.93788 28.7006 8.28011 29.0321C9.20739 29.362 9.99114 28.9946 10.3843 28.2861ZM14.5199 8.43776L14.834 8.52053C14.9836 8.55994 15.1344 8.65924 15.279 8.7865C15.426 8.91582 15.5782 9.08447 15.7301 9.27894C16.0341 9.66808 16.3462 10.1726 16.6223 10.7043C16.8985 11.2363 17.1412 11.8003 17.3046 12.3098C17.4659 12.8128 17.5573 13.2848 17.5101 13.6225L17.4577 13.9966L17.2311 13.6944C16.2187 12.3446 15.604 10.9254 15.0064 9.54563L15.0064 9.54562L15.0036 9.53921C14.8867 9.26935 14.7705 9.00113 14.6519 8.73452L14.5199 8.43776ZM29.5253 9.09033L29.6501 9.35978C29.7101 9.48928 29.7239 9.64597 29.7128 9.80789C29.7015 9.97201 29.6636 10.1554 29.6074 10.3479C29.4949 10.733 29.304 11.1712 29.0801 11.5939C28.8559 12.017 28.5957 12.4298 28.3419 12.764C28.0928 13.092 27.8351 13.3644 27.6126 13.4829L27.539 13.5222L27.4655 13.4826C27.423 13.4597 27.3808 13.4354 27.3409 13.4123L27.34 13.4118L27.3352 13.4091C27.2961 13.3865 27.2591 13.3652 27.2224 13.3455L27.2023 13.3346L27.0946 13.2269L27.1558 13.123C27.526 12.4946 27.8947 11.8661 28.2634 11.2376L28.2638 11.2368L28.2644 11.2359L28.2648 11.2353L28.2651 11.2347L28.2655 11.234L28.2662 11.2328L28.2671 11.2313L28.2681 11.2296L28.2683 11.2293L28.2685 11.229C28.6366 10.6015 29.0048 9.97385 29.3745 9.34621L29.5253 9.09033ZM18.8797 10.8844C19.0937 10.7889 19.3444 10.8817 19.4451 11.0928C19.5306 11.2721 19.6168 11.4521 19.7031 11.6323L19.7039 11.6338L19.7051 11.6364L19.7054 11.637C19.8294 11.8959 19.9535 12.1551 20.0756 12.4122C20.1371 12.5268 20.0966 12.6891 19.9508 12.7389C19.8712 12.7662 19.7878 12.7843 19.7146 12.8002L19.7106 12.801C19.6472 12.8148 19.5909 12.8271 19.538 12.843C19.4078 12.8819 19.2432 12.8303 19.1807 12.6808C19.0103 12.2732 18.8351 11.8607 18.6588 11.4471C18.5667 11.2307 18.6649 10.9803 18.8797 10.8844ZM25.37 11.0928C25.4707 10.8817 25.7214 10.7889 25.9354 10.8844C26.1502 10.9803 26.2484 11.2307 26.1562 11.4471C25.98 11.8607 25.8048 12.2732 25.6344 12.6808C25.5719 12.8303 25.4073 12.8819 25.2771 12.843C25.2242 12.8271 25.1679 12.8148 25.1045 12.801L25.1005 12.8002L25.0997 12.8C25.0267 12.7841 24.9436 12.7661 24.8643 12.7389C24.7185 12.6891 24.678 12.5268 24.7395 12.4122C24.862 12.1542 24.9866 11.8941 25.111 11.6342L25.1116 11.6331L25.1124 11.6314C25.1985 11.4516 25.2846 11.2718 25.37 11.0928ZM11.6861 15.2019C11.9415 15.4599 12.1485 15.727 12.2413 15.9696L12.3236 16.185L12.0931 16.1811C11.8708 16.1773 11.5668 16.063 11.2506 15.9048C10.9269 15.7429 10.5656 15.5221 10.2201 15.2804C9.87461 15.0388 9.54144 14.7739 9.27466 14.5226C9.01336 14.2765 8.79791 14.0271 8.71092 13.8161L8.62356 13.6042L8.85274 13.6009C9.10637 13.5973 9.42356 13.6966 9.74859 13.845C10.0783 13.9956 10.434 14.2052 10.7704 14.4409C11.1069 14.6765 11.4275 14.9407 11.6861 15.2019ZM36.4606 13.9125L36.372 14.2624C36.1075 15.3067 35.0078 15.9289 33.996 15.5871L33.6623 15.4743L33.9702 15.3032C34.3057 15.1168 34.6413 14.9289 34.9964 14.7299L34.9976 14.7293L34.9994 14.7283L35.0018 14.7269C35.3568 14.5281 35.7318 14.318 36.1452 14.088L36.4606 13.9125ZM5.09148 20.9414C5.50451 21.0381 5.87611 21.1908 6.10899 21.4165L6.34596 21.6462L6.01803 21.6832C4.80294 21.8204 3.68788 21.7783 2.55728 21.7357L2.55549 21.7356H2.55403L2.55333 21.7355L2.55256 21.7355L2.55149 21.7355C2.22942 21.7233 1.90618 21.7111 1.57794 21.7029L1.25928 21.6949L1.46135 21.4483C1.64977 21.2185 1.99432 21.0629 2.38209 20.9622C2.7773 20.8595 3.24734 20.8063 3.71977 20.8023C4.19237 20.7984 4.67361 20.8436 5.09148 20.9414ZM41.505 21.5142C41.9368 21.5569 42.3328 21.634 42.6097 21.7563L42.8047 21.8424L42.6634 22.0021C42.5809 22.0954 42.4584 22.1671 42.3225 22.2241C42.184 22.2822 42.0181 22.3305 41.8357 22.3702C41.4705 22.4496 41.0245 22.4972 40.5673 22.5134C40.1096 22.5296 39.6359 22.5144 39.2145 22.4664C38.7967 22.4188 38.4169 22.3375 38.1552 22.2143L37.9877 22.1355L38.094 21.9839C38.1619 21.8869 38.2791 21.8181 38.4015 21.7662C38.5293 21.712 38.6873 21.6663 38.8635 21.6282C39.2167 21.5519 39.6608 21.5023 40.1226 21.4822C40.585 21.462 41.0698 21.4712 41.505 21.5142ZM31.7766 28.1053L32.1173 28.1684C33.1297 28.3561 33.9204 28.9166 34.7264 29.488L34.7391 29.497C34.9884 29.6738 35.2396 29.8518 35.5022 30.0235L35.7587 30.1912L35.4721 30.2996C35.2391 30.3877 34.9348 30.3579 34.6252 30.2729C34.309 30.186 33.9593 30.0337 33.6186 29.8436C32.9423 29.4663 32.2686 28.9218 31.9555 28.402L31.7766 28.1053ZM16.6597 30.1016L16.7341 30.3963C16.7671 30.5273 16.7423 30.6928 16.6963 30.8602C16.6485 31.0343 16.57 31.2368 16.4703 31.4549C16.2708 31.8917 15.9796 32.4058 15.6559 32.9067C15.3321 33.4077 14.9731 33.8996 14.6363 34.2914C14.468 34.4872 14.3035 34.6599 14.1504 34.7968C13.9994 34.9318 13.8505 35.04 13.7134 35.0967L13.3989 35.2269L13.5059 34.9038C14.0894 33.1414 15.1535 31.8833 16.2455 30.5924L16.2529 30.5836L16.2538 30.5826L16.2568 30.5789C16.3257 30.4975 16.3948 30.4159 16.4639 30.3339L16.6597 30.1016ZM21.8576 31.5511L21.8984 31.9582C22.1123 34.0916 21.8665 36.1959 21.5485 38.3719L21.5081 38.6484L21.2941 38.4687C21.2351 38.4191 21.1969 38.3466 21.1702 38.2788C21.1419 38.2072 21.1187 38.1209 21.0994 38.0252C21.0607 37.8335 21.034 37.5866 21.0173 37.3055C20.9838 36.7421 20.9896 36.0237 21.0276 35.296C21.0656 34.5681 21.136 33.8264 21.2326 33.2164C21.2808 32.9115 21.3361 32.6369 21.3979 32.4121C21.4584 32.1924 21.5296 32.003 21.6173 31.8822L21.8576 31.5511ZM23.6587 31.5654L23.8987 31.7424C24.0887 31.8825 24.2353 32.1313 24.3444 32.4109C24.4554 32.6956 24.5359 33.0341 24.5808 33.3785C24.6257 33.7229 24.6357 34.0786 24.6027 34.3982C24.5701 34.7145 24.4938 35.011 24.3542 35.2249L24.2014 35.4591L24.0827 35.2059C23.5826 34.1394 23.6128 33.129 23.6438 32.0907L23.6441 32.0801V32.0777L23.648 31.9503L23.6505 31.8635L23.6587 31.5654ZM22.6894 21.0208L22.6824 21.0204C22.5698 20.9142 22.4835 20.8246 22.4114 20.7497C22.2874 20.6209 22.2053 20.5357 22.1036 20.4848C20.7013 19.7619 18.9563 20.7653 18.7631 22.4791C18.5263 24.5607 19.2305 26.312 20.9319 27.5647C23.4186 29.3908 26.0736 29.4842 28.741 28.0446C31.1155 26.767 33.4402 25.3959 35.7523 24.0123C37.1297 23.1834 37.1421 21.5817 35.771 20.7216C34.7206 20.0594 33.6367 19.4541 32.5537 18.8492L32.5536 18.8492L32.5533 18.849C32.1585 18.6286 31.7639 18.4082 31.371 18.1851C31.3267 18.1585 31.257 18.1729 31.1846 18.188C31.1553 18.194 31.1255 18.2002 31.0968 18.2038C32.5178 22.6786 30.6979 26.8355 26.9025 27.2531C28.8906 25.7885 29.7506 23.8876 29.9314 21.725C30.1183 19.5188 29.2645 17.6117 27.775 15.9789C25.9489 13.9845 21.9665 13.0933 20.1093 14.4582C20.1941 14.4778 20.2721 14.4989 20.3459 14.5188L20.3459 14.5188C20.4836 14.5561 20.6067 14.5894 20.7325 14.6015C24.2662 14.9568 27.0209 18.1726 26.8589 21.7562C26.7467 24.3488 24.9767 26.0627 22.6458 25.8446C20.6951 25.6576 19.4237 23.95 20.0096 22.3358C20.4388 21.1538 21.3773 20.9467 22.6824 21.0204L22.6894 21.027V21.0208ZM21.4687 23.6695C23.0517 23.8129 23.8993 23.2582 24.1299 22.0304C24.3791 20.7154 23.5253 19.3817 22.1854 19.0015C19.7672 18.3035 17.4862 19.9676 17.2868 22.5228C17.0313 25.7761 19.1752 29.6276 23.1763 30.095C23.3503 30.1153 23.5243 30.1513 23.7085 30.1894C23.8081 30.21 23.9106 30.2312 24.0177 30.2508C22.335 31.5534 18.6641 30.8928 16.5638 28.967C14.85 27.3902 14.1021 25.4146 14.1395 23.1211C14.1769 20.8338 15.3174 19.0763 17.0998 17.4809C13.3791 17.9047 11.6279 22.0491 13.0925 26.5987C13.012 26.577 12.9368 26.562 12.8667 26.5481L12.8666 26.5481C12.7359 26.5222 12.6227 26.4997 12.5253 26.4429C12.3 26.314 12.0747 26.1855 11.8495 26.057C10.6918 25.3964 9.53694 24.7374 8.39954 24.0435C6.97858 23.1772 6.94742 21.5381 8.36838 20.6905L8.59593 20.5547C10.8386 19.2161 13.0833 17.8763 15.3922 16.6707C18.7701 14.9132 22.0109 15.5426 24.2794 18.3035C25.4386 19.712 25.8126 21.3324 25.0522 23.0588C24.3854 24.5795 22.5655 24.9098 21.4687 23.6695Z" fill="#FAFAFA"/>
</svg>
