<svg width="20" height="20" viewBox="0 0 20 20" fill="none" xmlns="http://www.w3.org/2000/svg">
<rect x="0.5" y="0.5" width="19" height="19" rx="9.5" stroke="#333333"/>
<path fill-rule="evenodd" clip-rule="evenodd" d="M10.022 6.29744C10.022 6.37008 10.0818 6.4808 10.1403 6.51308V6.51081C10.2388 6.50424 10.2717 6.24297 10.2785 6.10905C10.2964 5.71927 10.3084 5.32834 10.3205 4.93708V4.93704L10.3205 4.93681L10.3205 4.93658C10.3253 4.78116 10.3301 4.62568 10.3352 4.4702L10.3366 4.43438C10.3409 4.32339 10.3453 4.21109 10.333 4.10249C10.3283 4.05922 10.3027 4.01911 10.2767 3.97858C10.2645 3.95957 10.2523 3.94046 10.2422 3.9209C10.2282 3.93681 10.2133 3.95237 10.1983 3.96796L10.1983 3.96797C10.16 4.008 10.1214 4.04831 10.0969 4.09568C10.0697 4.15242 10.0651 4.22506 10.0651 4.29089L10.0556 4.68363L10.0556 4.68369L10.0556 4.68376C10.0425 5.22087 10.0293 5.75916 10.022 6.29744ZM5.77199 12.2883C5.77239 12.2876 5.77261 12.2867 5.77261 12.2859L5.7726 12.2858C5.77525 12.2789 5.77662 12.2714 5.77662 12.2639C5.77662 12.2556 5.77492 12.2473 5.77158 12.2395L5.76472 12.2242C5.7403 12.1717 5.7134 12.19 5.67348 12.217C5.65932 12.2266 5.64354 12.2373 5.62564 12.2463L5.62662 12.2466C5.43942 12.3412 5.24517 12.4393 5.00561 12.56C5.3409 12.6793 5.62467 12.5482 5.76887 12.2938L5.77199 12.2883ZM7.27838 5.05941L7.39277 5.08955C7.44725 5.10391 7.50218 5.14007 7.55485 5.18642C7.60838 5.23352 7.66381 5.29495 7.71914 5.36577C7.82985 5.5075 7.94353 5.69125 8.04409 5.88492C8.1447 6.07868 8.23309 6.28409 8.29259 6.46965C8.35133 6.65284 8.38463 6.82474 8.36742 6.94775L8.34836 7.08398L8.26583 6.97393C7.8971 6.4823 7.67322 5.96542 7.45556 5.46291L7.45556 5.4629L7.45455 5.46056C7.41197 5.36228 7.36966 5.26459 7.32646 5.16749L7.27838 5.05941ZM12.7435 5.29708L12.789 5.39522C12.8108 5.44238 12.8158 5.49945 12.8118 5.55842C12.8077 5.61819 12.7939 5.685 12.7734 5.7551C12.7324 5.89537 12.6629 6.05496 12.5813 6.20889C12.4997 6.363 12.4049 6.51334 12.3125 6.63507C12.2218 6.75452 12.1279 6.85372 12.0469 6.8969L12.02 6.91119L11.9933 6.89678C11.9778 6.88844 11.9624 6.87958 11.9479 6.8712L11.9476 6.871L11.9458 6.87C11.9316 6.86179 11.9181 6.85404 11.9048 6.84685L11.8974 6.8429L11.8582 6.80367L11.8805 6.76581C12.0153 6.53694 12.1496 6.30806 12.2839 6.07913L12.2841 6.07886L12.2843 6.07851L12.2844 6.07829L12.2845 6.07806L12.2847 6.07783L12.2849 6.07737L12.2852 6.07683L12.2856 6.07623L12.2858 6.07584L12.2859 6.07579C12.4199 5.84732 12.5539 5.6188 12.6886 5.39027L12.7435 5.29708ZM8.86627 5.95049C8.94418 5.91571 9.03551 5.94951 9.07219 6.02641L9.16616 6.22289L9.16643 6.22345L9.16697 6.22457C9.21214 6.31887 9.25736 6.41328 9.3018 6.50692C9.32423 6.54866 9.30945 6.60778 9.25635 6.62594C9.22737 6.63585 9.19701 6.64244 9.17033 6.64824L9.1689 6.64855C9.1458 6.65357 9.12527 6.65806 9.10602 6.66382C9.05861 6.67802 8.99865 6.65921 8.97588 6.60475C8.91383 6.45632 8.85 6.30609 8.78582 6.15544C8.75224 6.07662 8.78802 5.98542 8.86627 5.95049ZM11.2301 6.02641C11.2668 5.94951 11.3581 5.91571 11.436 5.95049C11.5142 5.98542 11.55 6.07662 11.5164 6.15544C11.4523 6.30609 11.3884 6.45632 11.3264 6.60475C11.3036 6.65921 11.2437 6.67802 11.1962 6.66382C11.177 6.65806 11.1565 6.65357 11.1334 6.64855L11.1319 6.64824L11.1317 6.64818C11.105 6.6424 11.0748 6.63581 11.0459 6.62594C10.9928 6.60778 10.978 6.54866 11.0005 6.50692C11.0451 6.41282 11.0906 6.31794 11.136 6.22317L11.2301 6.02641ZM6.24627 7.52296C6.33931 7.61693 6.4147 7.71423 6.44849 7.80259L6.47847 7.88102L6.39452 7.8796C6.31356 7.87822 6.20282 7.83658 6.08768 7.77898C5.96976 7.72001 5.83819 7.63959 5.71236 7.55158C5.58652 7.46356 5.46517 7.36708 5.36801 7.27556C5.27284 7.18591 5.19437 7.0951 5.16269 7.01826L5.13087 6.94108L5.21434 6.93989C5.30672 6.93857 5.42224 6.97472 5.54062 7.02878C5.66071 7.08363 5.79026 7.15998 5.91278 7.2458C6.03531 7.33163 6.15209 7.42783 6.24627 7.52296ZM15.2694 7.05336L15.2371 7.1808C15.1408 7.56114 14.7403 7.78775 14.3718 7.66325L14.2502 7.62219L14.3624 7.55988C14.4846 7.49199 14.6068 7.42353 14.7361 7.35107L14.7365 7.35084L14.7376 7.35022L14.7377 7.35016C14.8671 7.27768 15.0038 7.20111 15.1545 7.11728L15.2694 7.05336ZM3.84445 9.61335C3.99488 9.64857 4.13022 9.70419 4.21504 9.7864L4.30135 9.87005L4.18191 9.88353C3.73937 9.9335 3.33325 9.91817 2.92148 9.90263H2.92147L2.92082 9.90261H2.92029L2.92004 9.90258L2.91976 9.90257L2.91937 9.90255C2.80206 9.89813 2.68434 9.89368 2.56479 9.89068L2.44873 9.88777L2.52233 9.79798C2.59095 9.71426 2.71644 9.6576 2.85767 9.62092C3.00161 9.58353 3.1728 9.56416 3.34487 9.56271C3.51699 9.56126 3.69226 9.57773 3.84445 9.61335ZM17.1066 9.82199C17.2639 9.83752 17.4081 9.8656 17.509 9.91014L17.58 9.94152L17.5285 9.99966C17.4985 10.0336 17.4538 10.0598 17.4044 10.0805C17.3539 10.1017 17.2935 10.1193 17.227 10.1337C17.094 10.1626 16.9316 10.18 16.7651 10.1859C16.5984 10.1918 16.4259 10.1863 16.2724 10.1688C16.1202 10.1514 15.9819 10.1218 15.8866 10.077L15.8256 10.0482L15.8643 9.99303C15.889 9.95773 15.9317 9.93265 15.9763 9.91375C16.0228 9.89402 16.0804 9.87737 16.1446 9.8635C16.2732 9.83569 16.4349 9.81763 16.6031 9.81031C16.7715 9.80298 16.9481 9.80633 17.1066 9.82199ZM13.5634 12.2225L13.6875 12.2455C14.0562 12.3139 14.3442 12.518 14.6378 12.7261L14.6424 12.7294C14.7332 12.7938 14.8247 12.8586 14.9203 12.9211L15.0138 12.9822L14.9094 13.0217C14.8245 13.0538 14.7137 13.0429 14.6009 13.012C14.4857 12.9803 14.3584 12.9248 14.2343 12.8556C13.988 12.7182 13.7426 12.5199 13.6286 12.3306L13.5634 12.2225ZM8.05773 12.9496L8.08479 13.0569C8.09683 13.1046 8.0878 13.1649 8.07105 13.2259C8.05363 13.2893 8.02504 13.363 7.98875 13.4425C7.91606 13.6016 7.81002 13.7888 7.69212 13.9712C7.57419 14.1537 7.44342 14.3329 7.32077 14.4755C7.25946 14.5469 7.19957 14.6098 7.14379 14.6596C7.0888 14.7088 7.03459 14.7482 6.98463 14.7689L6.87011 14.8163L6.90906 14.6986C7.12158 14.0567 7.50914 13.5985 7.90685 13.1283L7.90955 13.1251L7.90987 13.1248L7.91099 13.1234L7.98638 13.0342L8.05773 12.9496ZM9.95082 13.4775L9.96569 13.6258C10.0436 14.4028 9.95408 15.1692 9.83826 15.9617L9.82355 16.0624L9.74561 15.997C9.7241 15.9789 9.71022 15.9525 9.70046 15.9278C9.69016 15.9017 9.68173 15.8703 9.67469 15.8354C9.66059 15.7656 9.65086 15.6757 9.64478 15.5733C9.63259 15.3681 9.63472 15.1065 9.64855 14.8414C9.66238 14.5763 9.68801 14.3062 9.72319 14.084C9.74077 13.973 9.76089 13.873 9.78341 13.7911C9.80543 13.7111 9.83136 13.6421 9.8633 13.5981L9.95082 13.4775ZM10.6068 13.4827L10.6942 13.5472C10.7634 13.5982 10.8168 13.6888 10.8565 13.7907C10.897 13.8944 10.9263 14.0176 10.9427 14.143C10.959 14.2685 10.9627 14.398 10.9506 14.5145C10.9388 14.6296 10.911 14.7376 10.8601 14.8155L10.8045 14.9008L10.7612 14.8086C10.5791 14.4202 10.5901 14.0522 10.6014 13.674L10.6015 13.6702V13.6693L10.6029 13.6229L10.6038 13.5913L10.6068 13.4827ZM10.2539 9.64131L10.2513 9.64116C10.2103 9.6025 10.1789 9.56987 10.1527 9.54259L10.1527 9.54259C10.1075 9.49566 10.0776 9.46462 10.0405 9.4461C9.52982 9.1828 8.89426 9.54824 8.8239 10.1725C8.73764 10.9306 8.99414 11.5684 9.61381 12.0247C10.5195 12.6897 11.4864 12.7238 12.4579 12.1994C13.3228 11.7341 14.1694 11.2347 15.0115 10.7308C15.5132 10.4289 15.5177 9.8456 15.0183 9.53235C14.6358 9.29116 14.241 9.07069 13.8465 8.8504L13.8465 8.85039C13.7027 8.77008 13.5589 8.68978 13.4158 8.60852C13.3997 8.59882 13.3743 8.60409 13.3479 8.60956C13.3372 8.61178 13.3264 8.61402 13.316 8.61533C13.8335 10.2451 13.1707 11.7591 11.7883 11.9112C12.5124 11.3778 12.8257 10.6854 12.8915 9.8978C12.9596 9.09427 12.6486 8.39969 12.1061 7.80499C11.441 7.07863 9.99061 6.75404 9.31419 7.25114C9.34508 7.25827 9.37349 7.26596 9.40038 7.27323C9.45052 7.28679 9.49537 7.29892 9.54117 7.30335C10.8282 7.43273 11.8315 8.60398 11.7724 9.90915C11.7316 10.8534 11.0869 11.4776 10.238 11.3982C9.52755 11.3301 9.0645 10.7081 9.27787 10.1202C9.43421 9.68975 9.77601 9.61434 10.2513 9.64116L10.2539 9.64358V9.64131ZM9.80941 10.6061C10.386 10.6583 10.6947 10.4563 10.7786 10.0092C10.8694 9.53021 10.5585 9.04446 10.0704 8.906C9.18974 8.65178 8.35897 9.25783 8.28633 10.1885C8.19327 11.3733 8.9741 12.7761 10.4314 12.9464C10.4947 12.9537 10.5581 12.9668 10.6252 12.9807C10.6614 12.9882 10.6988 12.9959 10.7378 13.0031C10.1249 13.4775 8.78797 13.2369 8.02303 12.5355C7.39881 11.9612 7.12643 11.2417 7.14005 10.4064C7.15367 9.57334 7.56905 8.93324 8.21824 8.35216C6.86313 8.50651 6.2253 10.016 6.75871 11.673C6.72939 11.665 6.70201 11.6596 6.67647 11.6545C6.62884 11.6451 6.58762 11.6369 6.55216 11.6162L6.30604 11.4757C5.88438 11.2351 5.46376 10.9951 5.04951 10.7423C4.53198 10.4268 4.52063 9.82984 5.03816 9.52114L5.12103 9.47168C5.93782 8.98416 6.75538 8.4962 7.59629 8.05707C8.82656 7.41697 10.0069 7.64623 10.8331 8.65178C11.2553 9.16477 11.3915 9.75493 11.1146 10.3837C10.8717 10.9375 10.2089 11.0578 9.80941 10.6061Z" fill="#999999"/>
</svg>
