<svg width="20" height="20" viewBox="0 0 20 20" fill="none" xmlns="http://www.w3.org/2000/svg">
<path fill-rule="evenodd" clip-rule="evenodd" d="M9.99984 1.04175C5.05229 1.04175 1.0415 5.05253 1.0415 10.0001C1.0415 14.9477 5.05229 18.9584 9.99984 18.9584C14.9474 18.9584 18.9582 14.9477 18.9582 10.0001C18.9582 5.05253 14.9474 1.04175 9.99984 1.04175ZM10.8584 6.64147L13.7751 9.55816C14.0192 9.80225 14.0192 10.1979 13.7751 10.442L10.8584 13.3587C10.6143 13.6027 10.2187 13.6027 9.97459 13.3587C9.7305 13.1146 9.7305 12.7189 9.97459 12.4748L11.8243 10.6251H6.6665C6.32133 10.6251 6.0415 10.3452 6.0415 10.0001C6.0415 9.65491 6.32133 9.37508 6.6665 9.37508H11.8243L9.97459 7.52536C9.7305 7.28128 9.7305 6.88555 9.97459 6.64147C10.2187 6.3974 10.6143 6.3974 10.8584 6.64147Z" fill="#999999"/>
</svg>
