<svg viewBox="0 0 21 20" xmlns="http://www.w3.org/2000/svg">
<path d="M6.26 18.8008C5.88248 18.8077 5.50988 18.7145 5.18 18.5308C4 17.8408 3.62 15.9508 4.14 13.4408C1.67 12.6108 0.25 11.3608 0.25 10.0008C0.25 8.64081 1.67 7.38081 4.14 6.55081C3.62 4.00081 4 2.15081 5.18 1.47081C5.50759 1.28039 5.88116 1.18354 6.26 1.19081C7.7262 1.36817 9.08617 2.04639 10.11 3.11081C11.1441 2.03816 12.5196 1.35926 14 1.19081C14.3522 1.19447 14.6971 1.29106 15 1.47081C16.19 2.15081 16.56 4.00081 16 6.55081C18.56 7.38081 20 8.63081 20 10.0008C20 11.3708 18.59 12.6208 16.11 13.4408C16.64 15.9908 16.26 17.8408 15.11 18.5308C14.7801 18.7145 14.4075 18.8077 14.03 18.8008C12.5638 18.6234 11.2038 17.9452 10.18 16.8808C9.13819 17.9597 7.75105 18.6391 6.26 18.8008ZM11 16.0308C11.8162 16.8501 12.8627 17.4013 14 17.6108C14.1562 17.6181 14.3116 17.5835 14.45 17.5108C15.05 17.1108 15.22 15.6708 14.87 13.7908C14.0863 13.9809 13.2914 14.1211 12.49 14.2108C12.0335 14.8493 11.5358 15.4573 11 16.0308ZM5.77 17.5108C5.90845 17.5835 6.06378 17.6181 6.22 17.6108C7.3586 17.4049 8.40612 16.8532 9.22 16.0308C8.66638 15.4488 8.15192 14.8308 7.68 14.1808C6.87813 14.0994 6.08289 13.9624 5.3 13.7708C5 15.6808 5.14 17.1408 5.77 17.5108ZM9.27 14.3008C9.54 14.6108 9.82 14.9208 10.11 15.2108C10.4 14.9208 10.68 14.6208 10.95 14.3008H10.11H9.27ZM8.32 13.0808C8.91 13.1408 9.52 13.1708 10.11 13.1808C10.7078 13.181 11.3052 13.151 11.9 13.0908C12.25 12.6008 12.57 12.0908 12.9 11.5908C13.1906 11.0592 13.451 10.5117 13.68 9.95081C13.44 9.41252 13.1696 8.88834 12.87 8.38081C12.57 7.88081 12.26 7.38081 11.92 6.91081C11.32 6.85081 10.72 6.82081 10.12 6.81081C9.51803 6.82714 8.91726 6.87386 8.32 6.95081C7.97 7.44081 7.65 7.95081 7.32 8.46081C6.99 8.97081 6.75 9.46081 6.51 10.0508C6.77 10.6208 7.04 11.1408 7.33 11.6408C7.63304 12.1388 7.96356 12.6195 8.32 13.0808ZM13.67 12.4808L13.43 12.8708C13.83 12.8008 14.24 12.7108 14.64 12.6008C14.53 12.2008 14.4 11.8108 14.26 11.4208C14.13 11.6708 14 11.9208 13.86 12.1608L13.67 12.4808ZM5.59 12.6108C5.93 12.7008 6.33 12.7808 6.79 12.8708L6.36 12.1608C6.23 11.9208 6.09 11.6808 5.96 11.4308C5.8 11.8908 5.68 12.2608 5.59 12.6108ZM4.44 7.74081C2.61 8.39081 1.44 9.27081 1.44 10.0008C1.44 10.7308 2.61 11.6108 4.44 12.2608C4.66136 11.4883 4.93877 10.733 5.27 10.0008C4.94471 9.26624 4.66746 8.51131 4.44 7.74081ZM15 9.95081C15.3209 10.6871 15.5981 11.4418 15.83 12.2108C17.66 11.5608 18.83 10.6808 18.83 9.96081C18.83 9.24081 17.62 8.33081 15.83 7.69081C15.6043 8.4619 15.327 9.21694 15 9.95081ZM5.59 7.39081C5.7 7.79081 5.82 8.18081 5.96 8.57081C6.08 8.34081 6.21 8.08081 6.36 7.83081L6.79 7.12081C6.39 7.19414 5.99 7.28414 5.59 7.39081ZM13.44 7.13081C13.59 7.38081 13.73 7.60081 13.86 7.83081C13.99 8.06081 14.13 8.31081 14.26 8.55081C14.42 8.10081 14.54 7.73081 14.64 7.39081C14.29 7.30081 13.9 7.21081 13.44 7.13081ZM5.77 2.49081C5.14 2.85081 5 4.31081 5.31 6.22081C6.09306 6.03006 6.88825 5.89307 7.69 5.81081C8.16196 5.15488 8.67993 4.53332 9.24 3.95081C8.4238 3.13151 7.37733 2.58037 6.24 2.37081C6.09157 2.36643 5.94421 2.39727 5.81 2.46081L5.77 2.49081ZM12.54 5.81081C13.3385 5.89309 14.1303 6.03008 14.91 6.22081C15.26 4.34081 15.09 2.89081 14.48 2.50081C14.335 2.4152 14.1682 2.37351 14 2.38081C12.8639 2.58759 11.8175 3.13517 11 3.95081C11.5537 4.53621 12.0682 5.15756 12.54 5.81081ZM10.12 5.67081H10.95C10.68 5.36081 10.4 5.05081 10.11 4.76081C9.81786 5.04966 9.54083 5.3534 9.28 5.67081H10.11H10.12ZM10.12 10.7508C9.92109 10.7508 9.73032 10.6718 9.58967 10.5311C9.44902 10.3905 9.37 10.1997 9.37 10.0008C9.37 9.8019 9.44902 9.61113 9.58967 9.47048C9.73032 9.32983 9.92109 9.25081 10.12 9.25081C10.3189 9.25081 10.5097 9.32983 10.6503 9.47048C10.791 9.61113 10.87 9.8019 10.87 10.0008C10.87 10.1997 10.791 10.3905 10.6503 10.5311C10.5097 10.6718 10.3189 10.7508 10.12 10.7508Z" fill="currentColor"/>
<path d="M6.26 19.0505C5.83603 19.0587 5.41779 18.9516 5.05 18.7405C3.8 18.0205 3.37 16.1605 3.85 13.6005C1.4 12.7405 0 11.4405 0 10.0005C0 8.5605 1.4 7.2505 3.85 6.3905C3.38 3.8405 3.81 1.9505 5.06 1.2505C6.31 0.5505 8.16 1.1105 10.11 2.7805C12.06 1.1105 13.94 0.5405 15.17 1.2505C16.4 1.9605 16.85 3.8305 16.37 6.3905C18.82 7.2505 20.22 8.5605 20.22 10.0005C20.22 11.4405 18.82 12.7505 16.37 13.6005C16.85 16.1605 16.42 18.0205 15.17 18.7405C13.92 19.4605 12.06 18.8805 10.11 17.2105C9.07306 18.2435 7.71514 18.8925 6.26 19.0505ZM6.26 1.4405C5.91074 1.42493 5.56415 1.50811 5.26 1.6805C4.17 2.3105 3.84 4.0705 4.34 6.5005V6.7205L4.13 6.7905C1.86 7.5805 0.5 8.7405 0.5 10.0005C0.5 11.2605 1.86 12.4105 4.22 13.2005L4.43 13.2705V13.4905C3.92 15.9305 4.26 17.6905 5.34 18.3105C6.42 18.9305 8.16 18.3105 9.99 16.6905L10.15 16.5505L10.32 16.6905C12.14 18.3105 13.88 18.9205 14.96 18.3105C16.04 17.7005 16.38 15.9305 15.88 13.4905L15.83 13.2705L16.04 13.2005C18.41 12.4205 19.76 11.2505 19.76 10.0005C19.76 8.7505 18.37 7.5805 16 6.7905L15.79 6.7205L15.84 6.5005C16.33 4.0605 16 2.3105 14.92 1.6805C13.84 1.0505 12.1 1.6805 10.28 3.3005L10.11 3.4405L10 3.3005C9.0055 2.26725 7.68404 1.61006 6.26 1.4405ZM14 17.8605C12.7947 17.6594 11.6827 17.0859 10.82 16.2205L10.62 16.0505L10.8 15.8605C11.3501 15.2887 11.8613 14.6807 12.33 14.0405L12.4 13.9505H12.5C13.2906 13.8593 14.0752 13.7224 14.85 13.5405L15.11 13.4805L15.16 13.7305C15.53 15.7305 15.33 17.2405 14.63 17.7305C14.4359 17.8308 14.218 17.8758 14 17.8605ZM11.35 16.0105C12.082 16.7103 13.0035 17.1798 14 17.3605C14.1144 17.3681 14.2286 17.3439 14.33 17.2905C14.75 17.0105 15.01 15.9205 14.71 14.0705C14.0506 14.2252 13.3828 14.3421 12.71 14.4205C12.2869 14.9757 11.8329 15.5065 11.35 16.0105ZM6.22 17.8605C6.01787 17.8643 5.81815 17.8161 5.64 17.7205C4.9 17.3005 4.64 15.8005 5.06 13.7205L5.11 13.4605L5.37 13.5205C6.14397 13.7039 6.92892 13.8376 7.72 13.9205H7.83L7.89 14.0005C8.35776 14.6418 8.86543 15.253 9.41 15.8305L9.59 16.0205L9.39 16.1905C8.53607 17.0678 7.42644 17.6523 6.22 17.8605ZM5.51 14.0805C5.21 15.9605 5.51 17.0805 5.89 17.2905C5.98772 17.3441 6.09882 17.3684 6.21 17.3605C7.20518 17.1759 8.12559 16.707 8.86 16.0105C8.3927 15.5038 7.95211 14.973 7.54 14.4205C6.8581 14.341 6.1806 14.2275 5.51 14.0805ZM10.11 15.5705L9.93 15.3905C9.64 15.0905 9.36 14.7805 9.08 14.4605L8.71 14.0205H9.28C9.95 14.0205 10.39 14.0205 10.94 14.0205H11.51L11.14 14.4605C10.87 14.7705 10.58 15.0805 10.29 15.3805L10.11 15.5705ZM9.84 14.5705L10.11 14.8505L10.38 14.5705H9.84ZM10.11 13.4305C9.5 13.4305 8.89 13.4305 8.29 13.3305H8.18L8.11 13.2305C7.76 12.7405 7.44 12.2305 7.11 11.7205C6.78 11.2105 6.54 10.7205 6.28 10.1205V10.0205V9.9105C6.53 9.3605 6.8 8.8205 7.1 8.2905C7.4 7.7605 7.74 7.2905 8.1 6.7705L8.17 6.6705H8.3C8.9 6.6105 9.51 6.5805 10.11 6.5805C10.71 6.5805 11.33 6.5805 11.93 6.6805H12L12.07 6.7805C12.41 7.2605 12.74 7.7805 13.07 8.2705C13.3775 8.79577 13.6579 9.33648 13.91 9.8905L14 9.9505L13.95 10.0505C13.7054 10.6096 13.4283 11.1538 13.12 11.6805C12.8153 12.2054 12.4814 12.7129 12.12 13.2005L12.05 13.3005H11.94C11.33 13.4005 10.71 13.4305 10.11 13.4305ZM8.45 12.8405C9 12.9505 9.56 12.9505 10.11 12.9505C10.66 12.9505 11.22 12.9505 11.76 12.8705C12.08 12.4205 12.38 11.9505 12.65 11.4805C12.92 11.0105 13.18 10.4805 13.41 10.0005C13.18 9.5005 12.92 9.0005 12.65 8.5505C12.38 8.1005 12.08 7.6105 11.77 7.1705C11.22 7.1705 10.66 7.0905 10.11 7.0805C9.56 7.0705 9.01 7.0805 8.46 7.1605C8.14 7.6105 7.84 8.0805 7.57 8.5505C7.3 9.0205 7.04 9.5505 6.81 10.0205C7.06 10.5405 7.3 11.0205 7.57 11.4805C7.84 11.9405 8.14 12.3905 8.45 12.8405ZM13.45 13.4105V13.1305L12.94 13.2205L13.25 12.7405L13.49 12.3505L13.67 12.0305C13.81 11.7905 13.94 11.5505 14.07 11.3005L14.34 10.7905L14.53 11.3405C14.67 11.7405 14.8 12.1405 14.91 12.5405L14.97 12.7805L14.73 12.8405C14.37 12.9405 14.01 13.0205 13.64 13.0905L13.45 13.4105ZM14.24 12.0505L14.11 12.2805L13.97 12.5105L14.36 12.4205L14.24 12.0505ZM7.34 13.2105L6.78 13.1105C6.31 13.0305 5.91 12.9405 5.55 12.8505L5.31 12.7805L5.37 12.5405C5.47 12.1905 5.59 11.8105 5.76 11.3505L5.95 10.8205L6.21 11.3105C6.34 11.5605 6.47 11.8005 6.61 12.0305L7.03 12.7305L7.34 13.2105ZM5.9 12.4305L6.28 12.5105L6.15 12.2805L6 12.0505C6 12.1805 5.93 12.3105 5.9 12.4305ZM4.6 12.5805L4.35 12.4905C2.35 11.7905 1.18 10.8505 1.18 10.0005C1.18 9.1505 2.37 8.2105 4.35 7.5105L4.6 7.4205L4.68 7.6705C4.90204 8.44798 5.17599 9.20969 5.5 9.9505V10.0505V10.1505C5.17646 10.8744 4.9025 11.6194 4.68 12.3805L4.6 12.5805ZM4.28 8.0705C2.49 8.7405 1.68 9.5305 1.68 10.0005C1.68 10.4705 2.49 11.2605 4.27 11.9505C4.48 11.3005 4.72 10.6505 4.99 10.0205C4.71877 9.38361 4.48176 8.73268 4.28 8.0705ZM15.62 12.5705L15.55 12.3205C15.3214 11.5615 15.0476 10.8168 14.73 10.0905L14.68 9.9505L14.73 9.8505C15.0459 9.12465 15.3164 8.37988 15.54 7.6205L15.62 7.3705L15.87 7.4605C17.4 8.0405 19 8.9505 19 10.0005C19 10.8505 17.82 11.7805 15.83 12.4905L15.62 12.5705ZM15.23 9.9505C15.5 10.5805 15.74 11.2305 15.95 11.8905C17.73 11.2105 18.54 10.4205 18.54 9.9605C18.54 9.5005 17.65 8.7105 16 8.0605C15.74 8.7205 15.5 9.3605 15.23 9.9505ZM10.11 10.9505C9.91222 10.9505 9.71888 10.8919 9.55443 10.782C9.38998 10.6721 9.26181 10.5159 9.18612 10.3332C9.11043 10.1505 9.09063 9.94939 9.12921 9.75541C9.1678 9.56143 9.26304 9.38325 9.40289 9.24339C9.54275 9.10354 9.72093 9.0083 9.91491 8.96971C10.1089 8.93113 10.31 8.95093 10.4927 9.02662C10.6754 9.10231 10.8316 9.23048 10.9415 9.39493C11.0514 9.55938 11.11 9.75272 11.11 9.9505C11.1168 10.086 11.0959 10.2214 11.0487 10.3486C11.0015 10.4757 10.9289 10.5919 10.8354 10.6902C10.7418 10.7884 10.6293 10.8665 10.5046 10.9199C10.3799 10.9732 10.2456 11.0007 10.11 11.0005V10.9505ZM10.11 9.4505C9.97739 9.4505 9.85021 9.50318 9.75645 9.59695C9.66268 9.69071 9.61 9.81789 9.61 9.9505C9.61 10.0831 9.66268 10.2103 9.75645 10.3041C9.85021 10.3978 9.97739 10.4505 10.11 10.4505C10.2426 10.4505 10.3698 10.3978 10.4636 10.3041C10.5573 10.2103 10.61 10.0831 10.61 9.9505C10.5976 9.82674 10.5394 9.71206 10.447 9.62885C10.3545 9.54564 10.2344 9.49988 10.11 9.5005V9.4505ZM5.92 9.1905L5.72 8.6505C5.58 8.2605 5.46 7.8605 5.35 7.4505L5.28 7.2105L5.52 7.1505C5.93 7.0405 6.34 6.9505 6.75 6.8705L7.31 6.7705L7 7.2505C6.85 7.4805 6.71 7.7205 6.57 7.9605C6.43 8.2005 6.29 8.4605 6.17 8.6805L5.92 9.1905ZM5.92 7.5705C5.92 7.6905 5.99 7.8205 6.03 7.9405C6.03 7.8605 6.12 7.7905 6.17 7.7105L6.3 7.4805L5.92 7.5705ZM14.33 9.1705L14 8.6705L13.65 7.9505C13.51 7.7205 13.38 7.5005 13.22 7.2505L12.92 6.7705L13.48 6.8705C13.95 6.9605 14.35 7.0405 14.7 7.1305L14.94 7.2005L14.88 7.4405C14.78 7.7905 14.66 8.1805 14.5 8.6305L14.33 9.1705ZM14 7.4805L14.13 7.7105L14.26 7.9405C14.26 7.8105 14.34 7.6805 14.38 7.5705L14 7.4805ZM5.17 6.4805V6.2205C4.79 4.1405 5 2.6505 5.74 2.2205C5.90872 2.12957 6.09843 2.08472 6.29 2.0905C7.47644 2.31263 8.56379 2.90001 9.4 3.7705L9.6 3.9505L9.42 4.1405C8.87051 4.70931 8.35939 5.31397 7.89 5.9505L7.82 6.0305H7.72C6.92803 6.11197 6.14277 6.24897 5.37 6.4405L5.17 6.4805ZM5.82 2.4805L5.94 2.6905C5.49 2.9505 5.21 4.0405 5.52 5.9505C6.18031 5.80005 6.84784 5.68323 7.52 5.6005C8 5.0205 8.41 4.4905 8.87 3.9505C8.13423 3.26158 7.21312 2.80277 6.22 2.6305C6.11347 2.62698 6.00752 2.64748 5.91 2.6905L5.82 2.4805ZM15.16 6.4805L14.9 6.4205C14.1292 6.2379 13.3477 6.1043 12.56 6.0205H12.45L12.33 5.9505C11.8653 5.30684 11.3575 4.69544 10.81 4.1205L10.63 3.9505L10.83 3.7805C12.4 2.4505 13.83 1.8605 14.58 2.2805C15.33 2.7005 15.53 4.2805 15.16 6.2805V6.4805ZM12.72 5.4805C13.3919 5.56023 14.0595 5.67371 14.72 5.8205C15.02 3.9805 14.72 2.8705 14.35 2.6205C13.8 2.3005 12.62 2.8805 11.35 3.8905C11.82 4.42625 12.2607 4.98707 12.67 5.5705L12.72 5.4805ZM11.52 5.9505H10.94H10.12H9.28H8.71L9.09 5.5105C9.36 5.2005 9.64 4.8905 9.94 4.5905L10.12 4.4105L10.29 4.5905C10.59 4.8905 10.87 5.2005 11.14 5.5205L11.52 5.9505ZM10.11 5.4005H10.38L10.11 5.1205L9.84 5.4005H10.11Z" fill="currentColor"/>
</svg>
