<svg viewBox="0 0 20 17" fill="none" xmlns="http://www.w3.org/2000/svg">
<path d="M16.9415 1.93829C15.6468 1.33252 14.2624 0.892278 12.8151 0.641602C12.6373 0.962961 12.4297 1.3952 12.2865 1.73906C10.748 1.50767 9.22354 1.50767 7.71327 1.73906C7.57013 1.3952 7.35777 0.962961 7.17846 0.641602C5.72958 0.892278 4.34359 1.33414 3.04888 1.94151C0.437432 5.88775 -0.27049 9.73599 0.0834707 13.5295C1.81553 14.823 3.49406 15.6088 5.14433 16.1229C5.55175 15.5622 5.91516 14.966 6.22822 14.3377C5.63201 14.1112 5.06093 13.8316 4.52134 13.5071C4.66456 13.401 4.80457 13.2901 4.9398 13.176C8.23087 14.7153 11.8067 14.7153 15.0584 13.176C15.1953 13.2901 15.3353 13.401 15.4769 13.5071C14.9357 13.8332 14.3631 14.1128 13.7669 14.3394C14.0799 14.966 14.4418 15.5637 14.8508 16.1245C16.5026 15.6103 18.1827 14.8246 19.9147 13.5295C20.3301 9.13186 19.2053 5.31893 16.9415 1.93829ZM6.6766 11.1965C5.68863 11.1965 4.87849 10.2742 4.87849 9.15108C4.87849 8.02797 5.67132 7.10409 6.6766 7.10409C7.68188 7.10409 8.49202 8.02632 8.47471 9.15108C8.47628 10.2742 7.68188 11.1965 6.6766 11.1965ZM13.3216 11.1965C12.3337 11.1965 11.5235 10.2742 11.5235 9.15108C11.5235 8.02797 12.3163 7.10409 13.3216 7.10409C14.3269 7.10409 15.137 8.02632 15.1197 9.15108C15.1197 10.2742 14.3269 11.1965 13.3216 11.1965Z" fill="currentColor"/>
</svg>
