<svg viewBox="0 0 18 16" fill="none" xmlns="http://www.w3.org/2000/svg">
<path fill-rule="evenodd" clip-rule="evenodd" d="M2.33317 0.541992C1.06752 0.541992 0.0415039 1.56801 0.0415039 2.83366V13.167C0.0415039 14.4327 1.06752 15.4587 2.33317 15.4587H15.6665C16.9322 15.4587 17.9582 14.4327 17.9582 13.167V2.83366C17.9582 1.56801 16.9322 0.541992 15.6665 0.541992H2.33317ZM5.19159 4.98831C4.9088 4.79036 4.5191 4.85913 4.32115 5.14191C4.1232 5.42469 4.19198 5.8144 4.47475 6.01234L8.64142 8.92899C8.85659 9.07966 9.14309 9.07966 9.35825 8.92899L13.5249 6.01234C13.8077 5.8144 13.8765 5.42469 13.6785 5.14191C13.4806 4.85913 13.0908 4.79036 12.8081 4.98831L8.99984 7.65408L5.19159 4.98831Z" fill="currentColor"/>
</svg>
